<svg xmlns="http://www.w3.org/2000/svg" width="512" height="512" style="overflow: visible;" viewBox="0 0 512 512" data-svgdocument="" id="_okd89pbyEJgYsDI_BlAZh" class="fl-svgdocument" x="0" y="0" xmlns:xlink="http://www.w3.org/1999/xlink"><defs id="_OeB1w9U9T7_UTXdCJRmPl" transform="matrix(1.3806591938114643, 0, 0, 1.3806591938114643, -96.69364887404296, -8.877372641373295)" data-uid="o_em83gbkma_6"></defs><path id="_LHN6cRpOmj02SoJ5sBWHe" fill="#684ede" d="M85.2,24.9L85.2,24.9C77.9,10.1,62.7,0,45,0S12,10.1,4.7,24.9l0,0C1.7,30.9,0,37.8,0,45v45h49.8   c11.7,0,26.5-8.1,32.5-18.3C92.2,55,91.9,38.1,85.2,24.9z" transform="matrix(4.621533486610458, 0, 0, 4.621533486610458, 48, 48.03099310252938)" data-uid="o_em83gbkma_7"></path><path id="_7ODzRfa7VhoY7wq28i2tA" fill="#42ff77" transform="matrix(0.8601686533192419, 0, 0, 0.8601686533192419, 89.57023236139808, 340.7603237177876)" text="Rishabh" text-anchor="start" font-size="100" letter-spacing="0" side="left" offset="0" dx="0" dy="0" space="preserve" href="" font-family="Henny Penny" font-scale="contain" x="0" y="0" data-fl-textpath="" data-uid="o_em83gbkma_8" d="M 40.72-68.7L 40.72-68.7Q 46.58-68.7  50.34-67.02Q 54.1-65.33  56.3-62.72Q 58.5-60.11  59.35-56.96Q 60.21-53.81  60.21-50.88L 60.21-50.88Q 60.21-48  59.47-45.04Q 58.74-42.09  57.3-39.5Q 55.86-36.91  53.78-34.84Q 51.71-32.76  49.02-31.69L 49.02-31.69L 47.02-30.91Q 49.41-23.73  52.73-18.6Q 56.05-13.48  59.89-10.16Q 63.72-6.84  67.9-5.27Q 72.07-3.71  76.22-3.71L 76.22-3.71Q 78.61-3.71  80.59-4.35Q 82.57-4.98  84.01-6.23Q 85.45-7.47  86.23-9.25Q 87.01-11.04  87.01-13.38L 87.01-13.38Q 87.01-15.14  86.82-16.31Q 86.62-17.48  86.4-18.24Q 86.18-18.99  85.99-19.43Q 85.79-19.87  85.79-20.21L 85.79-20.21Q 85.79-20.46  85.89-20.63Q 85.99-20.8  86.28-20.8L 86.28-20.8Q 86.72-20.8  87.35-20.09Q 87.99-19.38  88.55-18.21Q 89.11-17.04  89.5-15.55Q 89.89-14.06  89.89-12.5L 89.89-12.5Q 89.89-8.79  88.82-5.62Q 87.74-2.44  85.52-0.1Q 83.3 2.25  79.93 3.56Q 76.56 4.88  72.02 4.88L 72.02 4.88Q 65.67 4.88  60.67 3Q 55.66 1.12  51.81-1.86Q 47.95-4.83  45.17-8.52Q 42.38-12.21  40.43-15.89Q 38.48-19.58  37.3-22.85Q 36.13-26.12  35.5-28.22L 35.5-28.22Q 34.08-28.03  32.81-27.95Q 31.54-27.88  30.42-27.88L 30.42-27.88Q 29.05-27.88  28.1-27.93Q 27.15-27.98  26.61-28.08L 26.61-28.08Q 26.71-24.9  26.88-21.36Q 27.05-17.82  27.34-14.55Q 27.64-11.28  28.08-8.67Q 28.52-6.05  29.1-4.69L 29.1-4.69Q 30.13-2.39  31.74-1.1Q 33.35 0.2  34.91 0.95Q 36.47 1.71  37.6 2.15Q 38.72 2.59  38.72 3.08L 38.72 3.08Q 38.72 3.71  37.3 3.71L 37.3 3.71Q 35.74 3.71  33.79 3.25Q 31.84 2.78  29.57 2.25Q 27.29 1.71  24.76 1.25Q 22.22 0.78  19.48 0.78L 19.48 0.78Q 16.85 0.78  14.06 1Q 11.28 1.22  8.98 1.22L 8.98 1.22Q 5.81 1.22  4.44 0.78Q 3.08 0.34  3.08-0.68L 3.08-0.68Q 3.08-1.32  3.47-1.71Q 3.86-2.1  4.98-2.1L 4.98-2.1Q 6.25-2.1  7.25-2.05Q 8.25-2  9.28-2L 9.28-2Q 11.67-2  13.4-2.34Q 15.14-2.69  16.21-3.74Q 17.29-4.79  17.8-6.69Q 18.31-8.59  18.31-11.72L 18.31-11.72Q 18.31-12.99  18.21-15.92Q 18.12-18.85  17.87-22.71Q 17.63-26.56  17.26-30.96Q 16.89-35.35  16.41-39.58Q 15.92-43.8  15.23-47.46Q 14.55-51.12  13.72-53.52L 13.72-53.52Q 12.84-55.91  11.62-57.28Q 10.4-58.64  8.86-59.38Q 7.32-60.11  5.54-60.35Q 3.76-60.6  1.81-60.79L 1.81-60.79Q 0.98-60.89  0.49-61.16Q 0-61.43  0-62.11L 0-62.11Q 0-62.7  0.39-63.11Q 0.78-63.53  2-63.62L 2-63.62Q 3.37-63.72  4.44-63.72Q 5.52-63.72  6.59-63.72L 6.59-63.72Q 8.06-63.72  9.42-63.72Q 10.79-63.72  12.33-63.79Q 13.87-63.87  15.75-64.04Q 17.63-64.21  20.12-64.5L 20.12-64.5Q 23.34-64.84  26-65.55Q 28.66-66.26  31.08-66.97Q 33.5-67.68  35.82-68.19Q 38.13-68.7  40.72-68.7ZM 26.42-37.6L 26.51-30.62Q 32.18-30.66  36.25-32.23Q 40.33-33.79  42.97-36.5Q 45.61-39.21  46.85-42.87Q 48.1-46.53  48.1-50.78L 48.1-50.78Q 48.1-58.35  45.31-62.18Q 42.53-66.02  37.4-66.02L 37.4-66.02Q 35.25-66.02  33.59-65.26Q 31.93-64.5  30.69-63.16Q 29.44-61.82  28.66-59.94Q 27.88-58.06  27.49-55.81L 27.49-55.81Q 26.76-51.12  26.59-46.51Q 26.42-41.89  26.42-37.6L 26.42-37.6ZM 102.3940625-78.32L 102.3940625-78.32Q 105.2740625-78.32  106.9840625-76.81Q 108.6940625-75.29  108.6940625-72.51L 108.6940625-72.51Q 108.6940625-70.65  108.1040625-69.41Q 107.5240625-68.16  106.5940625-67.41Q 105.6640625-66.65  104.5640625-66.33Q 103.4640625-66.02  102.3940625-66.02L 102.3940625-66.02Q 101.4640625-66.02  100.4440625-66.31Q 99.4140625-66.6  98.5340625-67.31Q 97.6540625-68.02  97.0940625-69.17Q 96.5340625-70.31  96.5340625-72.02L 96.5340625-72.02Q 96.5340625-73.83  97.12406250000001-75.02Q 97.70406249999999-76.22  98.5840625-76.95Q 99.4640625-77.69  100.4840625-78Q 101.5140625-78.32  102.3940625-78.32ZM 109.3240625-62.3L 109.3240625-62.3Q 109.8140625-62.3  109.8140625-61.18L 109.8140625-61.18Q 109.8140625-60.45  109.6440625-58.76Q 109.4740625-57.08  109.2240625-55.18L 109.2240625-55.18Q 108.8340625-52.15  108.4440625-48.46Q 108.0540625-44.78  107.6940625-40.89Q 107.3240625-37.01  107.0040625-33.2Q 106.6940625-29.39  106.4440625-26.15Q 106.20406249999999-22.9  106.0540625-20.43Q 105.9040625-17.97  105.9040625-16.8L 105.9040625-16.8Q 105.9040625-15.28  106.1040625-14.31Q 106.2940625-13.33  106.5940625-12.7Q 106.8840625-12.06  107.2540625-11.67Q 107.6140625-11.28  108.0040625-10.99L 108.0040625-10.99Q 108.4440625-10.69  109.0840625-10.45Q 109.7140625-10.21  110.45406249999999-9.99Q 111.1840625-9.77  111.9340625-9.62Q 112.6940625-9.47  113.3340625-9.42L 113.3340625-9.42Q 114.3540625-9.23  114.9940625-9.13Q 115.62406250000001-9.03  115.62406250000001-8.5L 115.62406250000001-8.5Q 115.62406250000001-7.52  113.5240625-7.52L 113.5240625-7.52Q 112.0640625-7.52  110.5940625-7.74Q 109.1340625-7.96  107.5940625-8.25Q 106.0540625-8.54  104.3940625-8.76Q 102.7340625-8.98  100.8340625-8.98L 100.8340625-8.98Q 99.0740625-8.98  97.6540625-8.89Q 96.2440625-8.79  95.0640625-8.64Q 93.8940625-8.5  92.8740625-8.4Q 91.8440625-8.3  90.8240625-8.3L 90.8240625-8.3Q 89.9940625-8.3  89.3040625-8.52Q 88.6240625-8.74  88.6240625-9.42L 88.6240625-9.42Q 88.6240625-10.11  89.3840625-10.38Q 90.1340625-10.64  90.9140625-10.79L 90.9140625-10.79Q 91.8940625-10.99  92.8240625-11.23Q 93.7540625-11.47  94.5040625-11.99Q 95.2640625-12.5  95.7740625-13.35Q 96.2940625-14.21  96.4340625-15.58L 96.4340625-15.58Q 96.6340625-18.26  96.7240625-21.04Q 96.8240625-23.83  96.87406250000001-26.54Q 96.9240625-29.25  96.9240625-31.81Q 96.9240625-34.38  96.9240625-36.62L 96.9240625-36.62Q 96.9240625-39.31  96.9240625-41.53Q 96.9240625-43.75  96.8240625-45.31L 96.8240625-45.31Q 96.7240625-47.8  96.2640625-49.22Q 95.8040625-50.63  94.9440625-51.32Q 94.0940625-52  92.7740625-52.22Q 91.4540625-52.44  89.6040625-52.59L 89.6040625-52.59Q 89.0640625-52.69  88.7440625-52.93Q 88.4240625-53.17  88.4240625-53.71L 88.4240625-53.71Q 88.4240625-54.64  89.8940625-54.79L 89.8940625-54.79Q 90.6240625-54.83  91.7440625-54.96Q 92.8740625-55.08  94.3640625-55.32Q 95.8540625-55.57  97.6040625-56.03Q 99.3640625-56.49  101.3140625-57.32L 101.3140625-57.32Q 103.4640625-58.2  104.8540625-59.08Q 106.2540625-59.96  107.12406250000001-60.67Q 108.0040625-61.38  108.4940625-61.84Q 108.9840625-62.3  109.3240625-62.3ZM 140.283984375-62.6L 140.283984375-62.6Q 142.283984375-62.6  143.673984375-62.4Q 145.063984375-62.21  146.073984375-61.94Q 147.073984375-61.67  147.803984375-61.47Q 148.533984375-61.28  149.263984375-61.28L 149.263984375-61.28Q 150.093984375-61.28  150.563984375-62.16Q 151.023984375-63.04  151.463984375-64.31L 151.463984375-64.31Q 152.103984375-66.02  152.973984375-66.02L 152.973984375-66.02Q 153.763984375-66.02  153.983984375-65.53Q 154.203984375-65.04  154.203984375-64.6L 154.203984375-64.6Q 154.203984375-64.01  154.073984375-63.4Q 153.953984375-62.79  153.713984375-61.82Q 153.463984375-60.84  153.153984375-59.38Q 152.833984375-57.91  152.493984375-55.71L 152.493984375-55.71Q 152.193984375-53.91  152.023984375-52.59Q 151.853984375-51.27  151.783984375-50.24Q 151.713984375-49.22  151.613984375-48.39Q 151.513984375-47.56  151.363984375-46.68L 151.363984375-46.68Q 151.073984375-44.82  150.093984375-44.82L 150.093984375-44.82Q 149.463984375-44.82  149.263984375-45.43Q 149.073984375-46.04  149.073984375-46.78L 149.073984375-46.78L 149.073984375-50.59Q 149.073984375-53.47  148.41398437499998-55.42Q 147.75398437500002-57.37  146.603984375-58.54Q 145.463984375-59.72  143.873984375-60.21Q 142.283984375-60.69  140.473984375-60.69L 140.473984375-60.69Q 138.863984375-60.69  137.373984375-60.16Q 135.883984375-59.62  134.763984375-58.57Q 133.643984375-57.52  132.963984375-56.01Q 132.273984375-54.49  132.273984375-52.59L 132.273984375-52.59Q 132.273984375-50.1  133.443984375-47.75Q 134.623984375-45.41  136.523984375-43.16Q 138.423984375-40.92  140.843984375-38.65Q 143.263984375-36.38  145.823984375-33.98Q 148.383984375-31.59  150.803984375-29Q 153.223984375-26.42  155.123984375-23.51Q 157.033984375-20.61  158.203984375-17.33Q 159.373984375-14.06  159.373984375-10.3L 159.373984375-10.3Q 159.373984375-5.27  157.813984375-1.39Q 156.25398437500002 2.49  153.613984375 5.13Q 150.973984375 7.76  147.463984375 9.13Q 143.943984375 10.5  139.993984375 10.5L 139.993984375 10.5Q 137.25398437500002 10.5  134.883984375 9.91Q 132.523984375 9.33  130.543984375 8.4Q 128.563984375 7.47  127.003984375 6.27Q 125.443984375 5.08  124.363984375 3.91L 124.363984375 3.91Q 122.363984375 1.66  120.943984375 0.49Q 119.533984375-0.68  117.873984375-0.68L 117.873984375-0.68Q 116.993984375-0.68  115.963984375-0.05Q 114.943984375 0.59  113.943984375 1.32Q 112.943984375 2.05  112.063984375 2.69Q 111.183984375 3.32 110.593984375 3.32L 110.593984375 3.32Q 110.053984375 3.32 109.813984375 3Q 109.573984375 2.69 109.573984375 2.39L 109.573984375 2.39Q 109.573984375 1.81 110.303984375 1.12L 110.303984375 1.12Q 110.593984375 0.83  111.453984375 0.05Q 112.303984375-0.73  113.573984375-2Q 114.843984375-3.27  116.433984375-5.13Q 118.013984375-6.98  119.773984375-9.42L 119.773984375-9.42Q 121.433984375-11.72  122.513984375-13.75Q 123.583984375-15.77  124.363984375-17.26Q 125.143984375-18.75  125.753984375-19.63Q 126.363984375-20.51  127.103984375-20.51L 127.103984375-20.51Q 127.833984375-20.51  128.053984375-20.07Q 128.273984375-19.63  128.273984375-19.09L 128.273984375-19.09Q 128.273984375-18.36  127.733984375-17.19Q 127.193984375-16.02  126.583984375-14.36Q 125.973984375-12.7  125.443984375-10.5Q 124.903984375-8.3  124.903984375-5.52L 124.903984375-5.52Q 124.903984375-3.91  125.533984375-1.76Q 126.173984375 0.39  127.583984375 2.29Q 129.00398437500002 4.2  131.323984375 5.54Q 133.643984375 6.88  136.963984375 6.88L 136.963984375 6.88Q 139.603984375 6.88  141.723984375 5.91Q 143.843984375 4.93  145.363984375 3.15Q 146.873984375 1.37  147.683984375-1.1Q 148.483984375-3.56  148.483984375-6.59L 148.483984375-6.59Q 148.483984375-10.45  146.683984375-14.04Q 144.873984375-17.63  142.133984375-21.07Q 139.403984375-24.51  136.233984375-27.83Q 133.053984375-31.15  130.323984375-34.45Q 127.583984375-37.74  125.783984375-41.06Q 123.973984375-44.38  123.973984375-47.8L 123.973984375-47.8Q 123.973984375-51.61  125.393984375-54.42Q 126.803984375-57.23  129.123984375-59.03Q 131.443984375-60.84  134.353984375-61.72Q 137.25398437500002-62.6  140.283984375-62.6ZM 187.302578125-106.98L 187.302578125-106.98Q 187.992578125-106.98  188.182578125-106.59Q 188.382578125-106.2  188.382578125-105.81L 188.382578125-105.81Q 188.382578125-105.13  188.182578125-103.98Q 187.992578125-102.83  187.692578125-100.93Q 187.402578125-99.02  187.032578125-96.22Q 186.672578125-93.41  186.282578125-89.4L 186.282578125-89.4Q 185.742578125-83.79  185.322578125-78.08Q 184.912578125-72.36  184.592578125-66.94Q 184.272578125-61.52  184.032578125-56.57Q 183.792578125-51.61  183.622578125-47.46Q 183.442578125-43.31  183.352578125-40.14Q 183.252578125-36.96  183.202578125-35.11L 183.202578125-35.11Q 183.982578125-37.4  185.322578125-39.7Q 186.672578125-41.99  188.572578125-43.85Q 190.482578125-45.7  192.97257812499998-46.85Q 195.462578125-48  198.482578125-48L 198.482578125-48Q 200.292578125-48  202.292578125-47.53Q 204.292578125-47.07  206.172578125-45.85Q 208.052578125-44.63  209.592578125-42.55Q 211.132578125-40.48  212.012578125-37.21L 212.012578125-37.21Q 212.792578125-34.03  212.992578125-30.98Q 213.182578125-27.93  213.182578125-24.41L 213.182578125-24.41Q 213.182578125-21.78  213.082578125-18.55Q 212.992578125-15.33  212.992578125-12.01L 212.992578125-12.01Q 212.992578125-9.81  213.402578125-8.57Q 213.822578125-7.32  214.572578125-6.69Q 215.332578125-6.05  216.382578125-5.86Q 217.432578125-5.66  218.702578125-5.62L 218.702578125-5.62Q 219.192578125-5.57  219.702578125-5.52Q 220.212578125-5.47  220.632578125-5.32Q 221.042578125-5.18  221.31257812500002-4.88Q 221.582578125-4.59  221.582578125-4.1L 221.582578125-4.1Q 221.582578125-3.56  221.042578125-3.13Q 220.512578125-2.69  219.092578125-2.69L 219.092578125-2.69Q 217.142578125-2.69  214.822578125-3.15Q 212.502578125-3.61  209.572578125-3.61L 209.572578125-3.61Q 207.712578125-3.61  205.692578125-3.22Q 203.662578125-2.83  201.782578125-2.37Q 199.902578125-1.9  198.342578125-1.51Q 196.772578125-1.12  195.902578125-1.12L 195.902578125-1.12Q 195.112578125-1.12  194.942578125-1.39Q 194.772578125-1.66  194.772578125-1.9L 194.772578125-1.9Q 194.772578125-2.29  195.072578125-2.51Q 195.362578125-2.73  196.192578125-2.98L 196.192578125-2.98Q 197.172578125-3.32  197.922578125-3.61Q 198.682578125-3.91  199.31257812500002-4.3L 199.31257812500002-4.3Q 200.052578125-4.74  200.712578125-5.74Q 201.362578125-6.74  201.712578125-8.98L 201.712578125-8.98Q 201.852578125-10.21  201.952578125-11.84Q 202.052578125-13.48  202.122578125-15.31Q 202.192578125-17.14  202.242578125-19.09Q 202.292578125-21.04  202.292578125-23L 202.292578125-23Q 202.292578125-26.22  202.192578125-29.08Q 202.102578125-31.93  201.802578125-33.79L 201.802578125-33.79Q 201.172578125-37.89  199.462578125-40.28Q 197.752578125-42.68  194.582578125-42.68L 194.582578125-42.68Q 193.06257812500002-42.68  191.872578125-42.09Q 190.672578125-41.5  189.742578125-40.58Q 188.822578125-39.65  188.082578125-38.48Q 187.352578125-37.3  186.81257812500002-36.08L 186.81257812500002-36.08Q 185.842578125-33.98  184.962578125-30.71Q 184.082578125-27.44  183.442578125-23.66Q 182.81257812500002-19.87  182.442578125-15.94Q 182.082578125-12.01  182.082578125-8.59L 182.082578125-8.59Q 182.082578125-6.98  182.47257812499998-5.98Q 182.862578125-4.98  183.622578125-4.37Q 184.372578125-3.76  185.422578125-3.42Q 186.47257812499998-3.08  187.792578125-2.78L 187.792578125-2.78Q 188.47257812499998-2.64  188.892578125-2.42Q 189.302578125-2.2  189.302578125-1.61L 189.302578125-1.61Q 189.302578125-0.49  187.602578125-0.49L 187.602578125-0.49Q 186.282578125-0.49  184.402578125-0.81Q 182.522578125-1.12  180.392578125-1.54Q 178.272578125-1.95  176.052578125-2.27Q 173.832578125-2.59  171.772578125-2.59L 171.772578125-2.59Q 169.092578125-2.59  166.992578125-2.34Q 164.892578125-2.1 163.382578125-2.1L 163.382578125-2.1Q 161.282578125-2.1 161.282578125-3.42L 161.282578125-3.42Q 161.282578125-3.96 161.692578125-4.27Q 162.112578125-4.59 162.792578125-4.59L 162.792578125-4.59Q 163.232578125-4.59 163.822578125-4.54Q 164.402578125-4.49  164.992578125-4.49L 164.992578125-4.49Q 166.752578125-4.49  168.022578125-4.91Q 169.282578125-5.32  170.192578125-6.35Q 171.092578125-7.37  171.732578125-9.11Q 172.362578125-10.84  172.802578125-13.48L 172.802578125-13.48Q 173.092578125-15.19  173.462578125-18.7Q 173.832578125-22.22  174.272578125-26.88Q 174.702578125-31.54  175.142578125-37.04Q 175.582578125-42.53  176.002578125-48.22Q 176.412578125-53.91  176.802578125-59.45Q 177.192578125-64.99  177.462578125-69.78Q 177.732578125-74.56  177.902578125-78.25Q 178.072578125-81.93  178.072578125-83.89L 178.072578125-83.89Q 178.072578125-86.77  177.562578125-88.45Q 177.052578125-90.14  176.272578125-91.02Q 175.492578125-91.89  174.532578125-92.14Q 173.582578125-92.38  172.702578125-92.38L 172.702578125-92.38Q 171.822578125-92.38  170.802578125-92.21Q 169.772578125-92.04  168.722578125-91.85Q 167.672578125-91.65  166.672578125-91.48Q 165.672578125-91.31 164.792578125-91.31L 164.792578125-91.31Q 164.012578125-91.31 163.692578125-91.63Q 163.382578125-91.94 163.382578125-92.48L 163.382578125-92.48Q 163.382578125-93.12 163.772578125-93.46Q 164.162578125-93.8  164.992578125-94.09L 164.992578125-94.09Q 166.162578125-94.48  167.532578125-94.87Q 168.892578125-95.26  170.482578125-95.83Q 172.072578125-96.39  173.872578125-97.19Q 175.682578125-98  177.782578125-99.22L 177.782578125-99.22Q 180.172578125-100.59  181.692578125-101.98Q 183.202578125-103.37  184.232578125-104.47Q 185.252578125-105.57  185.912578125-106.27Q 186.572578125-106.98  187.302578125-106.98ZM 236.67203125-35.21L 236.67203125-35.21Q 234.86203125-35.21  233.27203125-35.89Q 231.69203125-36.57  230.52203125-37.94Q 229.34203125-39.31  228.66203125-41.36Q 227.98203125-43.41  227.98203125-46.19L 227.98203125-46.19Q 227.98203125-49.22  228.83203125-52.12Q 229.69203125-55.03  231.49203125-57.3Q 233.30203125-59.57  236.11203125-60.94Q 238.91203124999998-62.3  242.87203125-62.3L 242.87203125-62.3Q 246.14203125-62.3  248.66203124999998-61.45Q 251.17203125-60.6  253.07203125-59.16Q 254.98203125-57.71  256.32203125-55.81Q 257.66203125-53.91  258.59203125-51.83Q 259.52203125-49.76  260.13203125-47.63Q 260.74203124999997-45.51  261.18203125-43.6L 261.18203125-43.6Q 261.42203125000003-42.53  261.79203125-40.55Q 262.16203125-38.57  262.60203125-35.99Q 263.04203125-33.4  263.52203125-30.44Q 264.01203125-27.49  264.50203125-24.46Q 264.99203124999997-21.44  265.45203125-18.58Q 265.92203125000003-15.72  266.31203125-13.35Q 266.70203125-10.99  266.97203125-9.3Q 267.23203125-7.62  267.38203125-6.98L 267.38203125-6.98Q 267.67203125000003-5.47  268.04203125-3.91Q 268.41203125-2.34  268.97203125-1.05Q 269.53203125 0.24  270.36203125 1.07Q 271.19203125 1.9  272.46203125 1.9L 272.46203125 1.9Q 273.19203125 1.9  273.73203125 1.56Q 274.27203125 1.22  274.58203125 0.63Q 274.90203125 0.05  275.05203125-0.68Q 275.19203125-1.42  275.19203125-2.2L 275.19203125-2.2Q 275.19203125-3.13  275.14203125-4.08Q 275.10203125-5.03  275.10203125-5.71L 275.10203125-5.71Q 275.10203125-6.45  275.29203125-6.98Q 275.49203124999997-7.52  276.07203125-7.52L 276.07203125-7.52Q 276.61203125-7.52  276.93203125-6.91Q 277.24203124999997-6.3  277.41203125-5.49Q 277.59203125-4.69  277.63203125-3.88Q 277.68203125-3.08  277.68203125-2.69L 277.68203125-2.69Q 277.68203125-0.98  277.39203125 1.17Q 277.10203125 3.32  276.17203125000003 5.32L 276.17203125000003 5.32Q 275.29203125 7.37  273.24203124999997 8.69Q 271.19203125 10.01  268.50203125 10.01L 268.50203125 10.01Q 266.16203125 10.01  264.48203125 9.33Q 262.79203125 8.64  261.59203125 7.62Q 260.40203125 6.59  259.59203125 5.42Q 258.79203125 4.25  258.30203125 3.22L 258.30203125 3.22Q 256.93203125 0.59  256.22203125-2.56Q 255.52203125-5.71  255.08203125-8.59L 255.08203125-8.59Q 254.34203125-7.37  252.85203125-5.57Q 251.37203125-3.76  249.17203125-2.1Q 246.97203125-0.44  244.09203125 0.73Q 241.21203125 1.9  237.69203125 1.9L 237.69203125 1.9Q 233.79203125 1.9  231.03203125 0.81Q 228.27203125-0.29  226.51203125-2.17Q 224.75203125-4.05  223.92203125-6.57Q 223.09203125-9.08  223.09203125-11.91L 223.09203125-11.91Q 223.09203125-14.94  224.22203125-18.02Q 225.34203125-21.09  227.90203125-23.58Q 230.47203125-26.07  234.59203125-27.64Q 238.72203125-29.2  244.68203125-29.2L 244.68203125-29.2Q 246.04203125-29.2  247.34203125-29.08Q 248.63203125-28.96  249.68203125-28.81Q 250.73203125-28.66  251.49203125-28.52Q 252.24203125-28.37  252.59203125-28.32L 252.59203125-28.32Q 252.29203125-32.52  251.85203125-36.72L 251.85203125-36.72Q 251.66203124999998-38.48  251.44203125-40.43Q 251.22203125-42.38  250.97203125-44.36Q 250.73203125-46.34  250.44203125-48.24Q 250.14203125-50.15  249.80203125-51.81L 249.80203125-51.81Q 249.02203125-55.57  246.75203125000002-57.79Q 244.48203125-60.01  240.96203125-60.01L 240.96203125-60.01Q 239.06203125-60.01  237.62203125-59.33Q 236.18203125-58.64  235.18203125-57.57Q 234.18203125-56.49  233.69203125-55.15Q 233.20203125-53.81  233.20203125-52.49L 233.20203125-52.49Q 233.20203125-51.07  233.88203125-50.12Q 234.57203125-49.17  235.57203125-48.44Q 236.57203125-47.71  237.74203125-47.05Q 238.91203124999998-46.39  239.91203124999998-45.53Q 240.92203125-44.68  241.60203125-43.48Q 242.28203125-42.29  242.28203125-40.48L 242.28203125-40.48Q 242.28203125-38.09  240.65203125-36.65Q 239.01203125-35.21  236.67203125-35.21ZM 252.98203125-25.29L 252.98203125-25.29Q 252.63203125-25.44  251.78203125-25.66Q 250.93203125-25.88  249.75203125000002-26.1Q 248.58203125-26.32  247.24203125-26.46Q 245.90203125-26.61  244.58203125-26.61L 244.58203125-26.61Q 241.99203125-26.61  239.77203125-25.88Q 237.55203125-25.15  235.94203125-23.71Q 234.32203125-22.27  233.40203125-20.09Q 232.47203125-17.92  232.47203125-15.09L 232.47203125-15.09Q 232.47203125-12.5  233.32203125-10.82Q 234.18203125-9.13  235.52203125-8.15Q 236.86203125-7.18  238.50203125000002-6.79Q 240.13203125-6.4  241.70203125-6.4L 241.70203125-6.4Q 244.19203125-6.4  246.43203125-7.18Q 248.68203125-7.96  250.39203125-8.98Q 252.10203125-10.01  253.17203125-10.99Q 254.25203125000002-11.96  254.49203125-12.3L 254.49203125-12.3Q 254.15203125-15.58  253.86203125-18.26L 253.86203125-18.26Q 253.71203125-19.43  253.59203125-20.56Q 253.46203125-21.68  253.34203125-22.66Q 253.22203125-23.63  253.12203125-24.32Q 253.03203125-25  252.98203125-25.29ZM 295.17046875-109.28L 295.17046875-109.28Q 295.21046875-108.45  295.29046875-106.62Q 295.36046875-104.79  295.46046875-102.32Q 295.56046875-99.85  295.65046875-97Q 295.75046875-94.14  295.85046875-91.31Q 295.95046875-88.48  296.02046875-85.84Q 296.09046875-83.2  296.19046875-81.2L 296.19046875-81.2Q 296.24046875-79.93  296.34046875-77.56Q 296.44046875-75.2  296.61046875-72.02Q 296.78046875-68.85  296.97046875-65.01Q 297.17046875-61.18  297.41046875-57.03Q 297.66046875-52.88  297.95046875-48.54Q 298.24046875-44.19  298.58046875-39.99L 298.58046875-39.99Q 300.93046875-42.87  303.42046875-44.73Q 305.91046875-46.58  308.35046875-47.63Q 310.79046875-48.68  313.09046875-49.1Q 315.38046875-49.51  317.28046875-49.51L 317.28046875-49.51Q 321.63046875-49.51  325.19046875-48Q 328.76046875-46.48  331.27046875-43.77Q 333.79046875-41.06  335.18046875-37.23Q 336.57046875000003-33.4  336.57046875000003-28.81L 336.57046875000003-28.81Q 336.57046875000003-24.22  335.69046875-20.7Q 334.81046875-17.19  333.32046875000003-14.55Q 331.84046875-11.91  329.83046875-10.11Q 327.83046875-8.3  325.59046875-7.13Q 323.34046875-5.96  320.95046875-5.32Q 318.55046875-4.69  316.26046875-4.39L 316.26046875-4.39Q 313.82046875000003-4.1  311.67046875-4.03Q 309.52046875-3.96  307.27046875-3.86Q 305.03046875-3.76  302.51046875-3.52Q 300.00046875-3.27  296.87046875-2.69L 296.87046875-2.69Q 294.77046875-2.29  292.41046875-1.54Q 290.04046875-0.78  287.79046875-0.05Q 285.55046875 0.68  283.64046875 1.25Q 281.74046875 1.81  280.57046875 1.81L 280.57046875 1.81Q 279.98046875 1.81 279.59046875 1.56Q 279.20046875 1.32 279.20046875 0.68L 279.20046875 0.68Q 279.20046875-0.34  280.86046875-0.78L 280.86046875-0.78Q 283.69046875-1.61  285.45046875-2.66Q 287.21046875-3.71  288.18046875-5.15Q 289.16046875-6.59  289.53046875-8.52Q 289.89046875-10.45  289.89046875-13.09L 289.89046875-13.09Q 289.89046875-14.21  289.79046875-17.5Q 289.70046875-20.8  289.55046875-25.49Q 289.40046875-30.18  289.21046875-35.86Q 289.01046875-41.55  288.77046875-47.51Q 288.52046875-53.47  288.28046875-59.33Q 288.04046875-65.19  287.82046875-70.17Q 287.60046875-75.15  287.38046875-78.91Q 287.16046875-82.67  286.96046875-84.42L 286.96046875-84.42Q 286.72046875-87.16  286.08046875-88.79Q 285.45046875-90.43  284.50046875-91.28Q 283.54046875-92.14  282.27046875-92.41Q 281.01046875-92.68 279.49046875-92.68L 279.49046875-92.68Q 277.29046875-92.68 275.90046875-92.53Q 274.51046875-92.38 273.39046875-92.38L 273.39046875-92.38Q 272.75046875-92.38 272.36046875-92.6Q 271.97046875-92.82 271.97046875-93.31L 271.97046875-93.31Q 271.97046875-93.85 272.34046875-94.14Q 272.70046875-94.43 273.78046875-94.58L 273.78046875-94.58Q 275.24046875-94.82 277.00046875-95.17Q 278.76046875-95.51  280.54046875-96.12Q 282.32046875-96.73  284.08046875-97.63Q 285.84046875-98.54  287.30046875-99.9L 287.30046875-99.9Q 288.67046875-101.17  289.62046875-102.59Q 290.58046875-104  291.19046875-105.37Q 291.80046875-106.74  292.19046875-107.96Q 292.58046875-109.18  292.87046875-110.13Q 293.16046875-111.08  293.46046875-111.65Q 293.75046875-112.21  294.19046875-112.21L 294.19046875-112.21Q 294.73046875-112.21  294.90046875-111.43Q 295.07046875-110.64  295.17046875-109.28ZM 311.67046875-44.29L 311.67046875-44.29Q 309.47046875-44.29  307.59046875-43.58Q 305.71046875-42.87  304.13046875-41.77Q 302.54046875-40.67  301.24046875-39.31Q 299.95046875-37.94  298.97046875-36.62L 298.97046875-36.62Q 299.51046875-29.93  300.07046875-24.88Q 300.63046875-19.82  301.37046875-16.31L 301.37046875-16.31Q 301.81046875-14.31  302.54046875-12.55Q 303.27046875-10.79  304.44046875-9.5Q 305.61046875-8.2  307.32046875-7.45Q 309.03046875-6.69  311.38046875-6.69L 311.38046875-6.69Q 315.48046875-6.69  318.09046875-8.35Q 320.70046875-10.01  322.22046875-12.67Q 323.73046875-15.33  324.32046875000003-18.6Q 324.90046875-21.88  324.90046875-25.1L 324.90046875-25.1Q 324.90046875-28.37  324.29046875-31.76Q 323.68046875-35.16  322.17046875-37.94Q 320.65046875-40.72  318.09046875-42.5Q 315.53046875-44.29  311.67046875-44.29ZM 360.59359375-106.98L 360.59359375-106.98Q 361.28359375-106.98  361.47359375-106.59Q 361.67359375-106.2  361.67359375-105.81L 361.67359375-105.81Q 361.67359375-105.13  361.47359375-103.98Q 361.28359375-102.83  360.98359375-100.93Q 360.69359375-99.02  360.32359375-96.22Q 359.96359375-93.41  359.57359375-89.4L 359.57359375-89.4Q 359.03359375-83.79  358.61359375-78.08Q 358.20359375-72.36  357.88359375-66.94Q 357.56359375-61.52  357.32359375-56.57Q 357.08359375-51.61  356.91359375-47.46Q 356.73359375-43.31  356.64359375-40.14Q 356.54359375-36.96  356.49359375-35.11L 356.49359375-35.11Q 357.27359375-37.4  358.61359375-39.7Q 359.96359375-41.99  361.86359375-43.85Q 363.77359375-45.7  366.26359375-46.85Q 368.75359375-48  371.77359375000003-48L 371.77359375000003-48Q 373.58359375-48  375.58359375-47.53Q 377.58359375-47.07  379.46359375-45.85Q 381.34359374999997-44.63  382.88359375-42.55Q 384.42359375-40.48  385.30359375-37.21L 385.30359375-37.21Q 386.08359375-34.03  386.28359375-30.98Q 386.47359375-27.93  386.47359375-24.41L 386.47359375-24.41Q 386.47359375-21.78  386.37359375-18.55Q 386.28359375-15.33  386.28359375-12.01L 386.28359375-12.01Q 386.28359375-9.81  386.69359375-8.57Q 387.11359375-7.32  387.86359375-6.69Q 388.62359375-6.05  389.67359375-5.86Q 390.72359375-5.66  391.99359375-5.62L 391.99359375-5.62Q 392.48359375-5.57  392.99359375-5.52Q 393.50359375-5.47  393.92359375-5.32Q 394.33359375-5.18  394.60359375-4.88Q 394.87359375-4.59  394.87359375-4.1L 394.87359375-4.1Q 394.87359375-3.56  394.33359375-3.13Q 393.80359375-2.69  392.38359375-2.69L 392.38359375-2.69Q 390.43359375-2.69  388.11359375-3.15Q 385.79359375-3.61  382.86359375-3.61L 382.86359375-3.61Q 381.00359375-3.61  378.98359375-3.22Q 376.95359375-2.83  375.07359375-2.37Q 373.19359375-1.9  371.63359375-1.51Q 370.06359375-1.12  369.19359375-1.12L 369.19359375-1.12Q 368.40359375-1.12  368.23359375-1.39Q 368.06359375-1.66  368.06359375-1.9L 368.06359375-1.9Q 368.06359375-2.29  368.36359375-2.51Q 368.65359375-2.73  369.48359375-2.98L 369.48359375-2.98Q 370.46359375-3.32  371.21359375-3.61Q 371.97359375-3.91  372.60359375-4.3L 372.60359375-4.3Q 373.34359374999997-4.74  374.00359375-5.74Q 374.65359375-6.74  375.00359375-8.98L 375.00359375-8.98Q 375.14359375-10.21  375.24359375-11.84Q 375.34359374999997-13.48  375.41359375-15.31Q 375.48359375-17.14  375.53359375-19.09Q 375.58359375-21.04  375.58359375-23L 375.58359375-23Q 375.58359375-26.22  375.48359375-29.08Q 375.39359375-31.93  375.09359374999997-33.79L 375.09359374999997-33.79Q 374.46359375-37.89  372.75359375-40.28Q 371.04359375-42.68  367.87359375-42.68L 367.87359375-42.68Q 366.35359375-42.68  365.16359375-42.09Q 363.96359375-41.5  363.03359375-40.58Q 362.11359375-39.65  361.37359375-38.48Q 360.64359375-37.3  360.10359375-36.08L 360.10359375-36.08Q 359.13359375-33.98  358.25359375-30.71Q 357.37359375-27.44  356.73359375-23.66Q 356.10359375-19.87  355.73359375-15.94Q 355.37359375-12.01  355.37359375-8.59L 355.37359375-8.59Q 355.37359375-6.98  355.76359375-5.98Q 356.15359375-4.98  356.91359375-4.37Q 357.66359375-3.76  358.71359375-3.42Q 359.76359375-3.08  361.08359375-2.78L 361.08359375-2.78Q 361.76359375-2.64  362.18359375-2.42Q 362.59359375-2.2  362.59359375-1.61L 362.59359375-1.61Q 362.59359375-0.49  360.89359375-0.49L 360.89359375-0.49Q 359.57359375-0.49  357.69359375-0.81Q 355.81359375-1.12  353.68359375-1.54Q 351.56359375-1.95  349.34359375-2.27Q 347.12359375-2.59  345.06359375-2.59L 345.06359375-2.59Q 342.38359375-2.59  340.28359375-2.34Q 338.18359375-2.1 336.67359375-2.1L 336.67359375-2.1Q 334.57359375-2.1 334.57359375-3.42L 334.57359375-3.42Q 334.57359375-3.96 334.98359375-4.27Q 335.40359375-4.59 336.08359375-4.59L 336.08359375-4.59Q 336.52359375-4.59 337.11359375-4.54Q 337.69359375-4.49  338.28359375-4.49L 338.28359375-4.49Q 340.04359375-4.49  341.31359375-4.91Q 342.57359375-5.32  343.48359375-6.35Q 344.38359375-7.37  345.02359375-9.11Q 345.65359375-10.84  346.09359375-13.48L 346.09359375-13.48Q 346.38359375-15.19  346.75359375-18.7Q 347.12359375-22.22  347.56359375-26.88Q 347.99359375-31.54  348.43359375-37.04Q 348.87359375-42.53  349.29359375-48.22Q 349.70359375-53.91  350.09359375-59.45Q 350.48359375-64.99  350.75359375-69.78Q 351.02359375-74.56  351.19359375-78.25Q 351.36359375-81.93  351.36359375-83.89L 351.36359375-83.89Q 351.36359375-86.77  350.85359375-88.45Q 350.34359375-90.14  349.56359375-91.02Q 348.78359375-91.89  347.82359375-92.14Q 346.87359375-92.38  345.99359375-92.38L 345.99359375-92.38Q 345.11359375-92.38  344.09359375-92.21Q 343.06359375-92.04  342.01359375-91.85Q 340.96359375-91.65  339.96359375-91.48Q 338.96359375-91.31 338.08359375-91.31L 338.08359375-91.31Q 337.30359375-91.31 336.98359375-91.63Q 336.67359375-91.94 336.67359375-92.48L 336.67359375-92.48Q 336.67359375-93.12 337.06359375-93.46Q 337.45359375-93.8  338.28359375-94.09L 338.28359375-94.09Q 339.45359375-94.48  340.82359375-94.87Q 342.18359375-95.26  343.77359375-95.83Q 345.36359375-96.39  347.16359375-97.19Q 348.97359375-98  351.07359375-99.22L 351.07359375-99.22Q 353.46359375-100.59  354.98359375-101.98Q 356.49359375-103.37  357.52359375-104.47Q 358.54359375-105.57  359.20359375-106.27Q 359.86359375-106.98  360.59359375-106.98Z" font-weight="400" font-style="normal"></path><g id="_wg6ho-UY_VgsfhCKLdiNI" transform="matrix(0.9280301428462774, 0, 0, 0.9280301428462774, 18.585867186225588, 17.943815051470967)" data-uid="o_em83gbkma_10"><path id="_aM2Q7WFsVTiL-dg5M6KXI" d="M35.513,22.692c0.003,0.001,0.002,0.003,0.002,0.003s-0.002,0.005,0.001,0.006c0,0,0,0,0.003,0.001l0,0 c0.518,1.24,1.942,1.829,3.188,1.315c1.248-0.516,1.84-1.945,1.322-3.19c-0.002-0.006-0.003-0.006-0.003-0.015 c-1.211-2.931-1.205-6.164,0.011-9.096c1.216-2.938,3.516-5.235,6.463-6.459c1.246-0.514,1.838-1.941,1.32-3.186 c-0.513-1.249-1.942-1.84-3.19-1.322l-0.005-0.018C36.054,4.278,31.973,14.131,35.513,22.692z" fill="#cdff42" transform="matrix(1.9326847791671753, 0, 0, 1.9326847791671753, 141.41702270507812, 92.72704315185547)" data-uid="o_em83gbkma_11"></path><path id="_cnAG01b-E9ZBKPNYFPLp_" d="M67.183,22.692c-0.004,0.001-0.003,0.003-0.003,0.003s0.003,0.005-0.001,0.006c0,0,0,0-0.002,0.001l0,0 c-0.52,1.24-1.942,1.829-3.188,1.315c-1.249-0.516-1.841-1.945-1.322-3.19c0.002-0.006,0.003-0.006,0.003-0.015 c1.212-2.931,1.205-6.164-0.012-9.096c-1.214-2.938-3.515-5.235-6.463-6.459c-1.245-0.514-1.837-1.941-1.319-3.186 c0.515-1.249,1.942-1.84,3.19-1.322l0.006-0.018C66.641,4.278,70.722,14.131,67.183,22.692z" fill="#cdff42" transform="matrix(1.9326847791671753, 0, 0, 1.9326847791671753, 140.86705017089844, 92.72704315185547)" data-uid="o_em83gbkma_12"></path><path id="_hLpAF7w3QDULeKy_QcMeL" d="M75,37.5c-0.979,0-1.912,0.194-2.77,0.536C71.364,34.852,68.455,32.5,65,32.5c-1.339,0-2.594,0.356-3.683,0.974  C59.983,31.389,57.653,30,55,30c-0.878,0-1.717,0.159-2.5,0.438V17.5c0-4.136-3.364-7.5-7.499-7.5c-4.136,0-7.5,3.364-7.5,7.5V45  v7.5v3.174l-4.087-7.079c-1.002-1.735-2.619-2.976-4.554-3.494c-1.936-0.521-3.958-0.252-5.69,0.749  c-1.735,1.001-2.976,2.618-3.495,4.554s-0.253,3.956,0.749,5.691l8.75,15.155c0.992,1.718,2.866,3.396,4.678,5.02  c1.264,1.132,3.365,3.014,3.649,3.822L37.5,84.999c0,0.664,0.263,1.3,0.732,1.769S39.337,87.5,40,87.5h35c1.381,0,2.5-1.119,2.5-2.5  v-4.994c0.034-0.656,1.301-2.49,2.057-3.585C81.07,74.229,82.5,72.16,82.5,70V52.5V45C82.5,40.864,79.136,37.5,75,37.5z M77.5,47.5  v4.375V52.5v17.494c-0.034,0.656-1.301,2.49-2.057,3.585C73.93,75.771,72.5,77.84,72.5,80v2.5h-30l0-2.5  c0-2.696-2.581-5.008-5.313-7.455c-1.449-1.298-3.091-2.769-3.684-3.795l-8.75-15.155c-0.334-0.578-0.422-1.252-0.25-1.897  c0.173-0.645,0.586-1.184,1.165-1.518c0.578-0.334,1.25-0.424,1.897-0.25c0.645,0.173,1.184,0.587,1.518,1.165l8.75,15.155  c0.315,0.545,0.804,0.927,1.356,1.115c0.127,0.044,0.259,0.077,0.395,0.101c0,0,0,0,0,0h0c0.265,0.044,0.535,0.047,0.803,0.004  c1.197-0.186,2.113-1.221,2.113-2.47V52.5v-1.25V47.5v-30c0-1.379,1.122-2.5,2.5-2.5c1.378,0,2.499,1.121,2.499,2.5v20v10  c0,0.402,0.104,0.777,0.273,1.113C48.184,49.433,49.021,50,50,50c1.381,0,2.5-1.119,2.5-2.5v-10c0-1.379,1.121-2.5,2.5-2.5  s2.5,1.121,2.5,2.5V40v7.5c0,1.381,1.119,2.5,2.5,2.5c1.171,0,2.146-0.809,2.418-1.896C62.467,47.91,62.5,47.71,62.5,47.5V40  c0-1.379,1.121-2.5,2.5-2.5s2.5,1.121,2.5,2.5v5v4.375V50c0,1.381,1.119,2.5,2.5,2.5c1.171,0,2.146-0.809,2.418-1.896  C72.467,50.41,72.5,50.21,72.5,50v-5c0-1.379,1.121-2.5,2.5-2.5s2.5,1.121,2.5,2.5V47.5z" fill="#ffffff" transform="matrix(1.6426126956939697, 0, 0, 1.6426126956939697, 168.2497100830078, 97.82422637939453)" data-uid="o_em83gbkma_13"></path></g></svg>